:SAMPLES-PER-SECOND 30
:FULLY-SPECIFIED
:DEGREES
200
root  -14.7305 40.1636 -12.7018 128.006 -79.3608 -135.519
RightUpLeg  3.04576 -6.27335 3.99657
RightLeg  11.4692 -1.53286 5.02396
RightFoot  -5.27301 0.139176 -3.29643
RightToes  0.00048216 0.542163 -0.142577
Spine  -2.58708 0.275017 0.664869
Spine1  24.519 -2.71439 9.17216
HEad  -9.30512 15.2167 4.85649
LeftShoulder1  6.72943 -12.636 -35.6192
LeftArm  -56.208 29.0426 -25.7161
LeftForeArm  93.8606 -64.7217 -152.142
LeftHand  -0.25398 0.0180481 5.50724
RightShoulder  5.15829 8.74848 36.1167
RightArm  -45.7555 -14.7384 30.3689
RightForeArm  65.0139 65.5035 150.162
RightHand  -0.874068 2.51348 -13.051
LeftUpLeg  4.8955 8.66644 19.4969
LeftLeg  18.9733 8.19307 3.44316
LeftFoot  -11.2909 0.0717577 -9.60638
LeftToes  1.06246e-005 4.65855e-005 -8.18503e-006
201
root  -14.7976 40.1683 -12.8752 128.021 -79.4878 -135.293
RightUpLeg  2.91669 -6.09981 4.27556
RightLeg  11.4624 -1.90573 4.93605
RightFoot  -5.42623 0.146924 -3.55152
RightToes  0.00048216 0.542163 -0.142577
Spine  -2.60106 0.147523 0.471602
Spine1  24.6176 -2.97293 9.46875
HEad  -9.33438 14.8533 5.07274
LeftShoulder1  6.75928 -12.6973 -35.645
LeftArm  -56.9056 29.5563 -25.9986
LeftForeArm  94.3559 -63.9868 -153.054
LeftHand  -0.25398 0.0180481 5.50724
RightShoulder  5.08457 8.66788 35.7974
RightArm  -46.1715 -15.1749 30.6358
RightForeArm  67.2156 64.4015 151.688
RightHand  -0.912078 2.73542 -13.251
LeftUpLeg  4.93537 8.72782 19.7115
LeftLeg  18.531 8.02435 3.30879
LeftFoot  -11.0342 0.092467 -9.86958
LeftToes  1.06246e-005 4.65855e-005 -8.18503e-006
202
root  -14.8583 40.179 -13.0226 128.28 -79.6633 -135.279
RightUpLeg  2.76242 -5.97431 4.42297
RightLeg  11.4102 -2.18883 4.89132
RightFoot  -5.51482 0.156108 -3.79742
RightToes  0.00048216 0.542163 -0.142577
Spine  -2.6559 -0.0250285 0.329516
Spine1  24.7042 -3.24149 9.65016
HEad  -9.18788 14.568 5.28332
LeftShoulder1  6.81644 -12.7807 -35.7792
LeftArm  -57.3161 29.9893 -26.042
LeftForeArm  94.648 -63.657 -153.449
LeftHand  -0.25398 0.0180481 5.50724
RightShoulder  5.05526 8.66597 35.568
RightArm  -45.9837 -15.3548 30.9223
RightForeArm  68.1445 63.7368 152.537
RightHand  -0.930822 2.66612 -13.6265
LeftUpLeg  4.97155 9.01145 19.8679
LeftLeg  18.0029 7.68307 3.10235
LeftFoot  -10.7562 0.11583 -10.0753
LeftToes  1.06246e-005 4.65855e-005 -8.18503e-006
203
root  -14.907 40.1914 -13.1464 128.798 -79.8551 -135.576
RightUpLeg  2.64765 -5.9291 4.44404
RightLeg  11.3502 -2.33456 4.89501
RightFoot  -5.58111 0.164409 -4.0147
RightToes  0.00048216 0.542163 -0.142577
Spine  -2.59395 -0.165811 0.382556
Spine1  24.6704 -3.36928 9.57247
HEad  -9.07376 14.2065 5.51083
LeftShoulder1  6.86384 -12.8958 -35.7749
LeftArm  -57.4223 30.1897 -26.1257
LeftForeArm  94.6272 -63.7831 -153.303
LeftHand  -0.25398 0.0180481 5.50724
RightShoulder  5.06544 8.72352 35.458
RightArm  -45.3956 -15.4853 31.2506
RightForeArm  68.5675 63.476 152.858
RightHand  -0.949024 2.69659 -13.8345
LeftUpLeg  5.05887 9.35106 19.9439
LeftLeg  17.4635 7.34008 2.90112
LeftFoot  -10.4903 0.13859 -10.1994
LeftToes  1.06246e-005 4.65855e-005 -8.18503e-006
204
root  -14.9426 40.2017 -13.2524 129.322 -80.0083 -135.988
RightUpLeg  2.63055 -5.91366 4.44264
RightLeg  11.2888 -2.42969 4.89701
RightFoot  -5.66203 0.167794 -4.1509
RightToes  0.00048216 0.542163 -0.142577
Spine  -2.3729 -0.240215 0.676948
Spine1  24.6283 -3.3557 9.29775
HEad  -9.29505 13.7004 5.71644
LeftShoulder1  6.89316 -13.0447 -35.5798
LeftArm  -57.2505 30.1262 -26.4086
LeftForeArm  94.3001 -64.1835 -152.817
LeftHand  -0.25398 0.0180481 5.50724
RightShoulder  5.07457 8.7909 35.3082
RightArm  -44.7788 -15.6294 31.8384
RightForeArm  68.5565 63.5232 152.8
RightHand  -1.05241 3.24518 -14.3737
LeftUpLeg  5.23255 9.58098 19.992
LeftLeg  16.9702 7.10999 2.75221
LeftFoot  -10.26 0.158445 -10.2714
LeftToes  1.06246e-005 4.65855e-005 -8.18503e-006
205
root  -14.9694 40.2101 -13.3404 129.646 -80.1256 -136.278
RightUpLeg  2.67955 -5.88312 4.4682
RightLeg  11.226 -2.55123 4.87003
RightFoot  -5.73714 0.168543 -4.23306
RightToes  0.00048216 0.542163 -0.142577
Spine  -2.09274 -0.285861 1.16863
Spine1  24.7297 -3.2934 8.94101
HEad  -9.8637 13.1576 5.84079
LeftShoulder1  6.92512 -13.2304 -35.3138
LeftArm  -56.9823 29.9412 -26.8752
LeftForeArm  93.9698 -64.5594 -152.347
LeftHand  -0.25398 0.0180481 5.50724
RightShoulder  5.06115 8.87528 34.9253
RightArm  -44.5037 -15.8236 32.895
RightForeArm  67.9171 63.7152 152.561
RightHand  -1.1711 3.70716 -15.1869
LeftUpLeg  5.43759 9.64756 20.0241
LeftLeg  16.5453 7.01507 2.66201
LeftFoot  -10.0669 0.175352 -10.3351
LeftToes  1.06246e-005 4.65855e-005 -8.18503e-006
206
root  -14.9906 40.2212 -13.4085 130.067 -80.2844 -136.655
RightUpLeg  2.6935 -5.87556 4.42425
RightLeg  11.1865 -2.63797 4.83427
RightFoot  -5.77921 0.171282 -4.32141
RightToes  0.00048216 0.542163 -0.142577
Spine  -1.8196 -0.327626 1.74912
Spine1  24.8905 -3.1877 8.50375
HEad  -10.5653 12.6706 5.80189
LeftShoulder1  6.94781 -13.4122 -35.0086
LeftArm  -56.8629 29.7104 -27.5418
LeftForeArm  93.9867 -64.7476 -152.115
LeftHand  -0.25398 0.0180481 5.50724
RightShoulder  5.0466 8.99254 34.4322
RightArm  -44.7197 -16.1198 34.2351
RightForeArm  67.13 63.8581 152.381
RightHand  -1.2017 3.63992 -15.6779
LeftUpLeg  5.60536 9.63595 19.9461
LeftLeg  16.1288 7.00681 2.60323
LeftFoot  -9.86239 0.193286 -10.3865
LeftToes  1.06246e-005 4.65855e-005 -8.18503e-006
207
root  -15.0134 40.2399 -13.4618 131.002 -80.521 -137.465
RightUpLeg  2.61145 -5.92417 4.23754
RightLeg  11.1539 -2.61576 4.81534
RightFoot  -5.79554 0.175047 -4.39987
RightToes  0.00048216 0.542163 -0.142577
Spine  -1.61727 -0.338479 2.30703
Spine1  24.942 -2.98425 7.95973
HEad  -11.2445 12.1679 5.6366
LeftShoulder1  6.94253 -13.5397 -34.6758
LeftArm  -56.9805 29.3866 -28.3481
LeftForeArm  94.3815 -64.7452 -152.14
LeftHand  -0.25398 0.0180481 5.50724
RightShoulder  5.05643 9.10585 34.1503
RightArm  -45.2841 -16.5162 35.3799
RightForeArm  67.0317 63.831 152.415
RightHand  -1.2134 3.63266 -15.8364
LeftUpLeg  5.73329 9.73931 19.729
LeftLeg  15.6101 6.9502 2.51756
LeftFoot  -9.59114 0.216324 -10.3884
LeftToes  1.06246e-005 4.65855e-005 -8.18503e-006
